<svg width="720" height="720" viewBox="0 0 720 720" fill="none" xmlns="http://www.w3.org/2000/svg">
<g id="moodMosaicImage">
<circle id="smallEllipseImage" cx="360" cy="360" r="357.5" fill="white" stroke="#00D5D9" stroke-width="5"/>
<g id="Frame">
<path id="Ellipse 1" d="M620.5 194.5C620.5 239.21 582.246 275.5 535 275.5C487.754 275.5 449.5 239.21 449.5 194.5C449.5 149.79 487.754 113.5 535 113.5C582.246 113.5 620.5 149.79 620.5 194.5Z" stroke="black"/>
<path id="Star 1" d="M189 487.69L204.463 537.626L204.572 537.978H204.94H255.044L214.489 568.896L214.211 569.108L214.315 569.441L229.793 619.426L189.303 588.559L189 588.328L188.697 588.559L148.207 619.426L163.685 569.441L163.789 569.108L163.511 568.896L122.956 537.978H173.06H173.428L173.537 537.626L189 487.69Z" stroke="black"/>
<line id="Line 2" x1="17.0066" y1="378.5" x2="703.007" y2="387.5" stroke="black"/>
</g>
<g id="Images">
<rect id="calm" x="495" y="144" width="100" height="100" fill="#D9D9D9"/>
<rect id="succeed" x="118" y="160" width="100" height="100" fill="#D9D9D9"/>
<rect id="work" x="545" y="388" width="100" height="100" fill="#D9D9D9"/>
<rect id="team" x="260" y="511" width="100" height="100" fill="#D9D9D9"/>
</g>
</g>
</svg>
